<?xml version="1.0" encoding="UTF-8" standalone="no"?>
<!-- Created with Inkscape (http://www.inkscape.org/) -->

<svg
   width="500"
   height="500"
   viewBox="0 0 132.29166 132.29167"
   version="1.1"
   id="svg1"
   xml:space="preserve"
   xmlns="http://www.w3.org/2000/svg"
   xmlns:svg="http://www.w3.org/2000/svg"><defs
     id="defs1" /><g
     id="layer1"><g
       id="g14"
       transform="matrix(0.55698099,0,0,0.55698099,10.084399,-31.109997)"><path
         style="fill:#000000;stroke:#000000;stroke-width:1;stroke-dasharray:none;stroke-opacity:1"
         d="m 78.236367,184.84884 c 2.08646,-2.51024 6.74107,-8.10913 10.34357,-12.44198 3.6025,-4.33286 6.662472,-7.80841 6.799942,-7.72345 l 0.24994,0.15447 v 12.28751 12.28751 h 4.894791 4.8948 v -12.28751 -12.28751 l 0.23795,-0.14706 c 0.13088,-0.0809 3.61345,3.91753 7.73906,8.88536 4.12561,4.96784 8.75725,10.53363 10.29252,12.36843 l 2.79142,3.336 4.94936,0.072 4.94937,0.072 -0.0679,-19.38657 -0.0679,-19.38658 h -4.7625 -4.7625 l -0.069,11.17865 c -0.038,6.14825 -0.16343,11.17864 -0.27883,11.17864 -0.28986,0 -1.35773,-1.17157 -4.58212,-5.02708 -5.55883,-6.64689 -12.56033,-15.00612 -14.44062,-17.24093 l -1.92837,-2.29197 V 137.9685 127.48824 l 26.78906,0.0722 26.78906,0.0722 2.05855,0.98296 2.05854,0.98296 1.45814,1.45813 1.45813,1.45813 0.84895,1.79225 0.84894,1.79224 v 2.91598 2.91598 l -0.90744,1.84652 -0.90745,1.84652 -1.4738,1.47294 -1.47381,1.47295 -1.57432,0.74268 c -0.86588,0.40847 -2.33997,0.87382 -3.27576,1.03412 l -1.70144,0.29144 0.16532,2.12314 c 0.0909,1.16773 0.16603,3.18216 0.16691,4.47651 l 0.002,2.35336 1.65365,-0.16092 c 9.44644,-0.91925 16.91098,-8.09977 18.4706,-17.7678 l 0.32522,-2.016 -0.16439,-2.13168 c -0.41837,-5.42528 -2.58051,-9.8588 -6.67084,-13.67872 l -2.03931,-1.90449 -2.67861,-1.3161 c -1.47323,-0.72386 -3.39298,-1.52295 -4.26611,-1.77575 l -1.5875,-0.45965 -27.18594,-0.0774 -27.18593,-0.0774 V 107.6512 97.076861 l 17.96153,-0.068 17.96154,-0.068 -3.74018,-4.81694 -3.74019,-4.81693 -33.3375,-0.009 -33.337501,-0.009 -3.7371,4.82572 -3.7371,4.82572 17.958458,0.068 17.958452,0.068 v 10.439719 10.43971 l -26.92135,0.0881 -26.92136,0.0881 -1.97668,0.57146 c -5.32218,1.53863 -9.35782,4.52323 -12.38061,9.15623 l -1.18434,1.8152 -0.75734,2.22665 c -4.3498,12.7888 4.10148,26.29688 17.21506,27.51566 l 1.77952,0.16539 0.17355,-1.66047 c 0.0954,-0.91326 0.17355,-2.93611 0.17355,-4.49522 v -2.83475 l -1.25964,-0.14919 c -4.18001,-0.49506 -8.4555,-4.01482 -9.64815,-7.94276 l -0.337,-1.10988 v -2.65158 -2.65157 l 0.90894,-1.84634 0.90894,-1.84635 1.36215,-1.3623 c 1.47664,-1.47681 3.14678,-2.43734 5.40081,-3.10611 l 1.43708,-0.42638 h 26.01344 26.01343 v 10.46476 10.46476 l -5.481492,6.53472 c -3.01482,3.59409 -6.37833,7.59836 -7.47448,8.89836 -1.09614,1.30001 -3.25198,3.85985 -4.79075,5.68854 -1.53877,1.8287 -2.96752,3.3249 -3.175,3.3249 h -0.37724 l -0.069,-11.18474 -0.069,-11.18474 -4.693478,0.0722 -4.69348,0.0722 -0.0679,19.38073 -0.0679,19.38073 h 4.88633 4.886328 z"
         id="path14" /><path
         style="fill:#000000;stroke:#000000;stroke-width:1;stroke-dasharray:none;stroke-opacity:1"
         d="m 64.320789,189.76568 c -0.22037,-0.22037 -0.23584,-38.78373 -0.0158,-39.35718 l 0.1606,-0.41852 h 5.13107 5.131068 v 11.26855 11.26855 l 1.09706,-1.38788 c 0.60338,-0.76333 5.18729,-6.2462 10.18646,-12.18415 l 9.089402,-10.79626 v -10.06461 -10.06461 l -25.59844,0.003 -25.59844,0.003 -1.36255,0.36279 c -4.05696,1.08021 -7.00715,3.95206 -8.17038,7.95343 l -0.45342,1.5597 0.13338,1.73963 c 0.41121,5.36301 4.35359,9.49809 9.80061,10.27965 l 1.37528,0.19733 0.0848,2.51049 c 0.0466,1.38077 0.005,3.62783 -0.0935,4.99347 l -0.17828,2.48299 -2.15546,-0.1355 -2.15545,-0.1355 -2.51354,-0.84179 -2.51354,-0.84179 -1.98438,-1.23225 c -1.0914,-0.67774 -2.83243,-2.07853 -3.86894,-3.11288 l -1.88456,-1.88062 -1.22888,-2.09699 c -1.54294,-2.6329 -2.13468,-4.20666 -2.69387,-7.16442 l -0.44256,-2.3409 0.15429,-2.64583 0.15428,-2.64583 0.54619,-1.93904 c 2.05561,-7.29767 7.70099,-12.81934 15.34947,-15.01313 l 1.71979,-0.49328 26.78906,-0.0842 26.78907,-0.0842 v -9.91234 -9.912349 H 77.090607 59.080539 l 0.0846,-0.5208 c 0.0465,-0.28644 1.79647,-2.72722 3.88883,-5.42395 l 3.80429,-4.90316 h 33.655461 33.65545 l 3.8814,5.00476 c 2.13478,2.75262 3.88141,5.19258 3.88141,5.42212 v 0.41736 l -18.05782,0.068 -18.05781,0.068 v 9.921869 9.92188 l 27.11979,0.13697 27.11979,0.13698 1.52132,0.45496 c 7.69057,2.29994 13.29951,7.71564 15.27549,14.74921 l 0.55748,1.98438 0.14797,2.77812 0.14796,2.77813 -0.5446,2.64583 -0.54461,2.64583 -1.21777,2.41597 -1.21777,2.41597 -1.55613,1.84868 c -3.55325,4.22126 -8.92753,7.01605 -14.22298,7.39641 l -2.18281,0.15678 -0.0579,-3.2143 c -0.0318,-1.76787 -0.0616,-4.01096 -0.0662,-4.98466 l -0.008,-1.77036 1.83307,-0.33832 c 4.50118,-0.83075 7.63206,-3.58585 8.92965,-7.85791 l 0.5535,-1.82227 -0.14847,-1.9632 -0.14848,-1.9632 -0.77064,-1.64682 -0.77064,-1.64682 -1.35723,-1.39342 -1.35723,-1.39341 -2.05884,-0.9831 -2.05885,-0.9831 h -26.45834 -26.45833 l 0.1013,10.04464 0.10131,10.04463 4.01216,4.77203 c 9.32678,11.09318 13.85989,16.50723 15.04276,17.96607 l 1.2587,1.55238 -0.0111,-10.94509 c -0.006,-6.01979 -0.009,-11.09642 -0.006,-11.2814 l 0.006,-0.33632 5.22552,0.0717 5.22552,0.0717 v 19.84375 19.84375 l -5.29167,0.0636 -5.29166,0.0636 -9.78959,-11.77888 c -5.38427,-6.47838 -9.99862,-12.10293 -10.25411,-12.49899 l -0.46454,-0.72012 0.0117,12.43542 0.0118,12.43542 h -5.23576 -5.235751 l -0.13229,-12.0804 -0.132302,-12.0804 -9.65729,11.6375 c -5.31151,6.40063 -9.87029,11.86657 -10.13062,12.14655 l -0.47332,0.50904 h -5.104978 c -2.80773,0 -5.18434,-0.0794 -5.28136,-0.17639 z"
         id="path13" /><path
         style="fill:#000000;stroke:#000000;stroke-width:1;stroke-dasharray:none;stroke-opacity:1"
         d="m 103.12257,259.56155 2.29684,-2.34718 V 233.3648 209.51523 l 10.64947,0.0691 10.64948,0.0692 0.1323,12.76904 0.13229,12.76905 4.69895,-4.70455 4.69896,-4.70454 -0.0687,-12.69471 -0.0687,-12.69471 H 100.52471 64.805959 l -0.0687,12.68306 -0.0687,12.68305 4.89547,4.91174 4.895458,4.91173 0.002,-13.03373 0.002,-13.03373 10.64947,0.0691 10.649482,0.0692 0.0676,23.86123 0.0676,23.86124 2.28172,2.26637 c 2.750791,2.73227 2.181781,2.74157 4.943641,-0.0808 z"
         id="path12" /><path
         style="fill:#000000;stroke:#000000;stroke-width:1;stroke-dasharray:none;stroke-opacity:1"
         d="m 97.808839,260.25155 -2.44075,-2.45094 -0.0676,-23.80896 -0.0676,-23.80896 -10.120322,-0.0693 -10.12031,-0.0693 v 12.93942 12.93942 l -0.36145,0.1387 -0.36144,0.1387 -5.062508,-5.08678 -5.06251,-5.08678 0.004,-12.81684 c 0.002,-7.04926 0.0988,-12.9661 0.21464,-13.14852 l 0.21058,-0.33168 36.099431,0.0671 36.09942,0.0671 0.0687,13.09186 0.0687,13.09187 -5.09321,5.09824 c -2.80127,2.80403 -5.18254,5.09824 -5.29171,5.09824 -0.10916,0 -0.22937,-5.86383 -0.26712,-13.03073 l -0.0686,-13.03073 -10.12032,-0.0693 -10.12031,-0.0693 v 23.72042 23.72041 l -2.56307,2.60877 c -3.09419,3.14937 -2.61119,3.1357 -5.576661,0.15784 z"
         id="path2" /></g></g></svg>
